<svg data-v-5f19e91b="" xmlns="http://www.w3.org/2000/svg" width="890" height="88" viewBox="0 0 890 88"><!----> <!----> <!----> <g data-v-5f19e91b="" id="7b79eeaf-46c4-95e1-b810-1a85d4b0114a" fill="white" transform="matrix(4.731861084854148,0,0,4.731861084854148,122.1251636736734,1.687655619388451)"><path d="M4.89 3.58L4.89 4.23L3.68 4.35L3.68 4.35Q3.65 5.24 3.65 6.11L3.65 6.11L3.65 6.11Q3.65 6.99 3.65 7.88L3.65 7.88L3.65 10.01L3.65 10.01Q3.65 10.58 3.65 11.04L3.65 11.04L3.65 11.04Q3.64 11.49 3.61 11.87L3.61 11.87L3.61 11.87Q3.58 12.24 3.54 12.54L3.54 12.54L3.54 12.54Q3.49 12.85 3.42 13.13L3.42 13.13L3.42 13.13Q3.28 13.66 3.01 14.06L3.01 14.06L3.01 14.06Q2.74 14.46 2.39 14.73L2.39 14.73L2.39 14.73Q2.03 14.99 1.61 15.13L1.61 15.13L1.61 15.13Q1.19 15.26 0.74 15.26L0.74 15.26L0.74 15.26Q0.53 15.26 0.31 15.23L0.31 15.23L0.31 15.23Q0.08 15.19-0.12 15.10L-0.12 15.10L-0.12 15.10Q-0.32 15.01-0.48 14.86L-0.48 14.86L-0.48 14.86Q-0.63 14.71-0.71 14.49L-0.71 14.49L-0.71 14.49Q-0.69 14.08-0.42 13.89L-0.42 13.89L-0.42 13.89Q-0.15 13.71 0.21 13.71L0.21 13.71L0.21 13.71Q0.48 13.71 0.71 13.81L0.71 13.81L0.71 13.81Q0.94 13.92 1.20 14.18L1.20 14.18L1.57 14.56L1.57 14.56Q1.81 14.24 1.91 13.83L1.91 13.83L1.91 13.83Q2.02 13.43 2.02 12.80L2.02 12.80L2.02 12.80Q2.02 12.45 2.01 11.87L2.01 11.87L2.01 11.87Q2.00 11.30 1.99 10.32L1.99 10.32L1.99 10.32Q1.97 9.35 1.95 7.90L1.95 7.90L1.95 7.90Q1.93 6.45 1.92 4.37L1.92 4.37L0.57 4.23L0.57 3.58L4.89 3.58ZM8.93 6.59L8.93 6.59L8.93 6.59Q8.11 6.59 7.68 7.33L7.68 7.33L7.68 7.33Q7.25 8.06 7.25 9.51L7.25 9.51L7.25 9.51Q7.25 10.96 7.68 11.68L7.68 11.68L7.68 11.68Q8.11 12.39 8.93 12.39L8.93 12.39L8.93 12.39Q9.76 12.39 10.18 11.68L10.18 11.68L10.18 11.68Q10.61 10.96 10.61 9.51L10.61 9.51L10.61 9.51Q10.61 8.06 10.18 7.33L10.18 7.33L10.18 7.33Q9.76 6.59 8.93 6.59ZM8.93 5.94L8.93 5.94L8.93 5.94Q9.58 5.94 10.19 6.17L10.19 6.17L10.19 6.17Q10.81 6.41 11.28 6.87L11.28 6.87L11.28 6.87Q11.75 7.34 12.03 8.00L12.03 8.00L12.03 8.00Q12.32 8.67 12.32 9.52L12.32 9.52L12.32 9.52Q12.32 10.37 12.05 11.03L12.05 11.03L12.05 11.03Q11.77 11.69 11.31 12.14L11.31 12.14L11.31 12.14Q10.85 12.60 10.23 12.83L10.23 12.83L10.23 12.83Q9.62 13.06 8.93 13.06L8.93 13.06L8.93 13.06Q8.25 13.06 7.63 12.83L7.63 12.83L7.63 12.83Q7.01 12.60 6.55 12.14L6.55 12.14L6.55 12.14Q6.09 11.69 5.82 11.03L5.82 11.03L5.82 11.03Q5.54 10.37 5.54 9.52L5.54 9.52L5.54 9.52Q5.54 8.67 5.82 8.00L5.82 8.00L5.82 8.00Q6.10 7.34 6.58 6.87L6.58 6.87L6.58 6.87Q7.06 6.41 7.67 6.17L7.67 6.17L7.67 6.17Q8.27 5.94 8.93 5.94ZM15.75 6.08L15.89 7.56L15.89 7.56Q16.28 6.80 16.80 6.37L16.80 6.37L16.80 6.37Q17.32 5.94 17.85 5.94L17.85 5.94L17.85 5.94Q18.14 5.94 18.45 6.10L18.45 6.10L18.45 6.10Q18.76 6.27 18.84 6.71L18.84 6.71L18.84 6.71Q18.84 7.11 18.59 7.36L18.59 7.36L18.59 7.36Q18.34 7.60 17.93 7.60L17.93 7.60L17.93 7.60Q17.44 7.60 17.00 7.14L17.00 7.14L16.93 7.07L16.93 7.07Q16.60 7.35 16.35 7.71L16.35 7.71L16.35 7.71Q16.09 8.08 15.90 8.57L15.90 8.57L15.90 9.91L15.90 9.91Q15.90 10.36 15.90 10.96L15.90 10.96L15.90 10.96Q15.90 11.55 15.92 12.08L15.92 12.08L17.04 12.29L17.04 12.85L13.40 12.85L13.40 12.29L14.34 12.11L14.34 12.11Q14.35 11.59 14.35 10.98L14.35 10.98L14.35 10.98Q14.35 10.37 14.35 9.91L14.35 9.91L14.35 9.16L14.35 9.16Q14.35 8.58 14.34 8.23L14.34 8.23L14.34 8.23Q14.32 7.87 14.31 7.45L14.31 7.45L13.29 7.32L13.29 6.80L15.54 5.94L15.75 6.08ZM24.09 11.52L24.09 7.45L24.09 7.45Q23.35 6.87 22.74 6.87L22.74 6.87L22.74 6.87Q22.39 6.87 22.07 7.03L22.07 7.03L22.07 7.03Q21.76 7.18 21.51 7.51L21.51 7.51L21.51 7.51Q21.27 7.84 21.13 8.34L21.13 8.34L21.13 8.34Q20.99 8.83 20.99 9.51L20.99 9.51L20.99 9.51Q20.99 10.84 21.47 11.47L21.47 11.47L21.47 11.47Q21.95 12.11 22.69 12.11L22.69 12.11L22.69 12.11Q23.39 12.11 24.09 11.52L24.09 11.52ZM25.65 12.11L26.61 12.29L26.61 12.85L24.26 12.99L24.15 12.12L24.15 12.12Q23.74 12.57 23.27 12.82L23.27 12.82L23.27 12.82Q22.79 13.06 22.15 13.06L22.15 13.06L22.15 13.06Q21.53 13.06 21.01 12.82L21.01 12.82L21.01 12.82Q20.50 12.59 20.13 12.13L20.13 12.13L20.13 12.13Q19.75 11.68 19.54 11.03L19.54 11.03L19.54 11.03Q19.33 10.37 19.33 9.55L19.33 9.55L19.33 9.55Q19.33 8.72 19.57 8.06L19.57 8.06L19.57 8.06Q19.80 7.39 20.20 6.92L20.20 6.92L20.20 6.92Q20.59 6.44 21.14 6.19L21.14 6.19L21.14 6.19Q21.69 5.94 22.32 5.94L22.32 5.94L22.32 5.94Q23.41 5.94 24.16 6.78L24.16 6.78L24.16 4.00L23.00 3.86L23.00 3.33L25.51 2.70L25.70 2.81L25.65 4.80L25.65 12.11ZM31.25 11.49L31.25 9.23L31.25 9.23Q30.93 9.32 30.64 9.42L30.64 9.42L30.64 9.42Q30.35 9.52 30.16 9.59L30.16 9.59L30.16 9.59Q29.40 9.88 29.16 10.26L29.16 10.26L29.16 10.26Q28.92 10.63 28.92 11.00L28.92 11.00L28.92 11.00Q28.92 11.28 29.00 11.45L29.00 11.45L29.00 11.45Q29.08 11.62 29.20 11.75L29.20 11.75L29.20 11.75Q29.51 12.05 30.02 12.05L30.02 12.05L30.02 12.05Q30.30 12.05 30.55 11.94L30.55 11.94L30.55 11.94Q30.81 11.82 31.25 11.49L31.25 11.49ZM33.74 11.83L34.06 12.11L34.06 12.11Q33.80 12.63 33.48 12.81L33.48 12.81L33.48 12.81Q33.17 12.99 32.72 12.99L32.72 12.99L32.72 12.99Q32.13 12.99 31.78 12.74L31.78 12.74L31.78 12.74Q31.43 12.49 31.30 12.05L31.30 12.05L31.30 12.05Q31.05 12.31 30.82 12.50L30.82 12.50L30.82 12.50Q30.59 12.68 30.36 12.81L30.36 12.81L30.36 12.81Q30.13 12.94 29.86 13.00L29.86 13.00L29.86 13.00Q29.60 13.06 29.27 13.06L29.27 13.06L29.27 13.06Q28.48 13.06 27.93 12.62L27.93 12.62L27.93 12.62Q27.38 12.18 27.38 11.34L27.38 11.34L27.38 11.34Q27.38 11.03 27.48 10.74L27.48 10.74L27.48 10.74Q27.58 10.44 27.85 10.16L27.85 10.16L27.85 10.16Q28.13 9.87 28.61 9.60L28.61 9.60L28.61 9.60Q29.09 9.34 29.85 9.07L29.85 9.07L29.85 9.07Q30.13 8.97 30.50 8.87L30.50 8.87L30.50 8.87Q30.87 8.76 31.25 8.65L31.25 8.65L31.25 8.27L31.25 8.27Q31.25 7.32 30.96 6.96L30.96 6.96L30.96 6.96Q30.67 6.59 29.99 6.59L29.99 6.59L29.99 6.59Q29.86 6.59 29.71 6.61L29.71 6.61L29.71 6.61Q29.57 6.62 29.41 6.65L29.41 6.65L29.22 7.55L29.22 7.55Q29.05 8.43 28.35 8.43L28.35 8.43L28.35 8.43Q28.04 8.43 27.85 8.25L27.85 8.25L27.85 8.25Q27.65 8.06 27.61 7.77L27.61 7.77L27.61 7.77Q27.75 6.96 28.50 6.45L28.50 6.45L28.50 6.45Q29.26 5.94 30.48 5.94L30.48 5.94L30.48 5.94Q31.68 5.94 32.23 6.52L32.23 6.52L32.23 6.52Q32.79 7.11 32.79 8.57L32.79 8.57L32.79 11.51L32.79 11.51Q32.79 12.17 33.19 12.17L33.19 12.17L33.19 12.17Q33.35 12.17 33.46 12.09L33.46 12.09L33.46 12.09Q33.57 12.01 33.67 11.90L33.67 11.90L33.74 11.83ZM41.43 12.11L42.32 12.29L42.32 12.85L38.91 12.85L38.91 12.29L39.84 12.11L39.84 12.11Q39.86 11.59 39.86 10.99L39.86 10.99L39.86 10.99Q39.86 10.39 39.86 9.91L39.86 9.91L39.86 8.62L39.86 8.62Q39.86 7.74 39.64 7.37L39.64 7.37L39.64 7.37Q39.42 7 38.88 7L38.88 7L38.88 7Q38.43 7 38.01 7.22L38.01 7.22L38.01 7.22Q37.59 7.43 37.13 7.87L37.13 7.87L37.13 9.91L37.13 9.91Q37.13 10.37 37.13 10.98L37.13 10.98L37.13 10.98Q37.13 11.58 37.14 12.11L37.14 12.11L38.04 12.29L38.04 12.85L34.61 12.85L34.61 12.29L35.56 12.11L35.56 12.11Q35.57 11.58 35.57 10.98L35.57 10.98L35.57 10.98Q35.57 10.37 35.57 9.91L35.57 9.91L35.57 9.16L35.57 9.16Q35.57 8.58 35.56 8.23L35.56 8.23L35.56 8.23Q35.55 7.87 35.53 7.45L35.53 7.45L34.51 7.32L34.51 6.80L36.76 5.94L36.97 6.08L37.09 7.20L37.09 7.20Q37.65 6.57 38.21 6.25L38.21 6.25L38.21 6.25Q38.78 5.94 39.48 5.94L39.48 5.94L39.48 5.94Q40.45 5.94 40.93 6.53L40.93 6.53L40.93 6.53Q41.41 7.13 41.41 8.46L41.41 8.46L41.41 9.91L41.41 9.91Q41.41 10.39 41.41 10.99L41.41 10.99L41.41 10.99Q41.41 11.59 41.43 12.11L41.43 12.11ZM52.91 10.39L53.83 10.39L53.73 12.85L46.37 12.85L46.37 12.21L47.57 12.08L47.57 12.08Q47.60 11.20 47.60 10.31L47.60 10.31L47.60 10.31Q47.60 9.42 47.60 8.51L47.60 8.51L47.60 7.92L47.60 7.92Q47.60 7.03 47.60 6.14L47.60 6.14L47.60 6.14Q47.60 5.25 47.57 4.35L47.57 4.35L46.37 4.23L46.37 3.58L53.45 3.58L53.55 6.05L52.63 6.05L52.32 4.33L49.32 4.33L49.32 4.33Q49.29 5.17 49.29 6.01L49.29 6.01L49.29 6.01Q49.29 6.86 49.29 7.73L49.29 7.73L51.23 7.73L51.41 6.44L52.11 6.44L52.11 9.72L51.41 9.72L51.24 8.44L49.29 8.44L49.29 8.44Q49.29 9.42 49.29 10.33L49.29 10.33L49.29 10.33Q49.29 11.24 49.32 12.12L49.32 12.12L52.60 12.12L52.91 10.39ZM57.23 12.11L58.17 12.29L58.17 12.85L54.66 12.85L54.66 12.29L55.64 12.11L55.64 12.11Q55.65 11.55 55.66 11.00L55.66 11.00L55.66 11.00Q55.66 10.46 55.66 9.91L55.66 9.91L55.66 4.00L54.56 3.86L54.56 3.33L57.06 2.70L57.26 2.81L57.20 4.80L57.20 9.91L57.20 9.91Q57.20 10.46 57.21 11.01L57.21 11.01L57.21 11.01Q57.22 11.56 57.23 12.11L57.23 12.11ZM60.73 4.59L60.73 4.59L60.73 4.59Q60.28 4.59 59.98 4.31L59.98 4.31L59.98 4.31Q59.67 4.03 59.67 3.58L59.67 3.58L59.67 3.58Q59.67 3.14 59.98 2.86L59.98 2.86L59.98 2.86Q60.28 2.58 60.73 2.58L60.73 2.58L60.73 2.58Q61.18 2.58 61.48 2.86L61.48 2.86L61.48 2.86Q61.78 3.14 61.78 3.58L61.78 3.58L61.78 3.58Q61.78 4.03 61.48 4.31L61.48 4.31L61.48 4.31Q61.18 4.59 60.73 4.59ZM61.54 12.11L62.43 12.29L62.43 12.85L59.01 12.85L59.01 12.29L59.96 12.11L59.96 12.11Q59.98 11.58 59.98 10.98L59.98 10.98L59.98 10.98Q59.98 10.37 59.98 9.91L59.98 9.91L59.98 9.21L59.98 9.21Q59.98 8.64 59.96 8.25L59.96 8.25L59.96 8.25Q59.95 7.87 59.93 7.45L59.93 7.45L58.91 7.32L58.91 6.80L61.36 5.94L61.57 6.08L61.53 8.02L61.53 9.91L61.53 9.91Q61.53 10.37 61.53 10.98L61.53 10.98L61.53 10.98Q61.53 11.59 61.54 12.11L61.54 12.11ZM68.08 10.54L68.94 10.54L68.80 12.85L63.13 12.85L63.13 12.32L67.00 6.79L64.46 6.79L64.08 8.34L63.21 8.29L63.32 6.19L68.80 6.19L68.80 6.71L64.97 12.24L67.66 12.24L68.08 10.54ZM73.78 11.49L73.78 9.23L73.78 9.23Q73.46 9.32 73.17 9.42L73.17 9.42L73.17 9.42Q72.88 9.52 72.69 9.59L72.69 9.59L72.69 9.59Q71.93 9.88 71.69 10.26L71.69 10.26L71.69 10.26Q71.46 10.63 71.46 11.00L71.46 11.00L71.46 11.00Q71.46 11.28 71.53 11.45L71.53 11.45L71.53 11.45Q71.61 11.62 71.74 11.75L71.74 11.75L71.74 11.75Q72.04 12.05 72.55 12.05L72.55 12.05L72.55 12.05Q72.83 12.05 73.09 11.94L73.09 11.94L73.09 11.94Q73.35 11.82 73.78 11.49L73.78 11.49ZM76.27 11.83L76.59 12.11L76.59 12.11Q76.33 12.63 76.01 12.81L76.01 12.81L76.01 12.81Q75.70 12.99 75.25 12.99L75.25 12.99L75.25 12.99Q74.66 12.99 74.31 12.74L74.31 12.74L74.31 12.74Q73.96 12.49 73.84 12.05L73.84 12.05L73.84 12.05Q73.58 12.31 73.35 12.50L73.35 12.50L73.35 12.50Q73.12 12.68 72.89 12.81L72.89 12.81L72.89 12.81Q72.66 12.94 72.39 13.00L72.39 13.00L72.39 13.00Q72.13 13.06 71.81 13.06L71.81 13.06L71.81 13.06Q71.01 13.06 70.46 12.62L70.46 12.62L70.46 12.62Q69.92 12.18 69.92 11.34L69.92 11.34L69.92 11.34Q69.92 11.03 70.01 10.74L70.01 10.74L70.01 10.74Q70.11 10.44 70.39 10.16L70.39 10.16L70.39 10.16Q70.66 9.87 71.14 9.60L71.14 9.60L71.14 9.60Q71.62 9.34 72.38 9.07L72.38 9.07L72.38 9.07Q72.66 8.97 73.03 8.87L73.03 8.87L73.03 8.87Q73.40 8.76 73.78 8.65L73.78 8.65L73.78 8.27L73.78 8.27Q73.78 7.32 73.49 6.96L73.49 6.96L73.49 6.96Q73.21 6.59 72.52 6.59L72.52 6.59L72.52 6.59Q72.39 6.59 72.25 6.61L72.25 6.61L72.25 6.61Q72.10 6.62 71.95 6.65L71.95 6.65L71.75 7.55L71.75 7.55Q71.58 8.43 70.88 8.43L70.88 8.43L70.88 8.43Q70.57 8.43 70.38 8.25L70.38 8.25L70.38 8.25Q70.18 8.06 70.14 7.77L70.14 7.77L70.14 7.77Q70.28 6.96 71.04 6.45L71.04 6.45L71.04 6.45Q71.79 5.94 73.01 5.94L73.01 5.94L73.01 5.94Q74.21 5.94 74.77 6.52L74.77 6.52L74.77 6.52Q75.32 7.11 75.32 8.57L75.32 8.57L75.32 11.51L75.32 11.51Q75.32 12.17 75.73 12.17L75.73 12.17L75.73 12.17Q75.88 12.17 75.99 12.09L75.99 12.09L75.99 12.09Q76.10 12.01 76.20 11.90L76.20 11.90L76.27 11.83ZM79.56 7.49L79.56 11.54L79.56 11.54Q80.30 12.12 80.96 12.12L80.96 12.12L80.96 12.12Q81.31 12.12 81.62 11.96L81.62 11.96L81.62 11.96Q81.93 11.80 82.16 11.48L82.16 11.48L82.16 11.48Q82.39 11.16 82.52 10.68L82.52 10.68L82.52 10.68Q82.66 10.19 82.66 9.53L82.66 9.53L82.66 9.53Q82.66 8.20 82.22 7.54L82.22 7.54L82.22 7.54Q81.79 6.87 81.05 6.87L81.05 6.87L81.05 6.87Q80.39 6.87 79.56 7.49L79.56 7.49ZM79.52 4.80L79.52 6.87L79.52 6.87Q79.97 6.41 80.47 6.17L80.47 6.17L80.47 6.17Q80.98 5.94 81.59 5.94L81.59 5.94L81.59 5.94Q82.17 5.94 82.66 6.17L82.66 6.17L82.66 6.17Q83.16 6.40 83.52 6.85L83.52 6.85L83.52 6.85Q83.89 7.29 84.10 7.95L84.10 7.95L84.10 7.95Q84.31 8.60 84.31 9.45L84.31 9.45L84.31 9.45Q84.31 10.28 84.08 10.95L84.08 10.95L84.08 10.95Q83.86 11.62 83.47 12.09L83.47 12.09L83.47 12.09Q83.08 12.56 82.54 12.81L82.54 12.81L82.54 12.81Q82.00 13.06 81.38 13.06L81.38 13.06L81.38 13.06Q80.84 13.06 80.37 12.87L80.37 12.87L80.37 12.87Q79.91 12.67 79.51 12.22L79.51 12.22L79.42 12.22L79.34 13.03L77.04 12.85L77.04 12.29L77.99 12.11L77.99 12.11Q78.01 11.58 78.01 10.97L78.01 10.97L78.01 10.97Q78.01 10.36 78.01 9.91L78.01 9.91L78.01 4.00L76.90 3.86L76.90 3.33L79.38 2.70L79.58 2.81L79.52 4.80ZM87.16 8.86L89.26 8.86L89.26 8.86Q89.77 8.86 89.94 8.65L89.94 8.65L89.94 8.65Q90.12 8.44 90.12 8.06L90.12 8.06L90.12 8.06Q90.12 7.43 89.76 7.01L89.76 7.01L89.76 7.01Q89.40 6.59 88.87 6.59L88.87 6.59L88.87 6.59Q88.61 6.59 88.33 6.71L88.33 6.71L88.33 6.71Q88.05 6.83 87.80 7.10L87.80 7.10L87.80 7.10Q87.56 7.36 87.39 7.80L87.39 7.80L87.39 7.80Q87.22 8.23 87.16 8.86L87.16 8.86ZM91.52 9.51L87.14 9.51L87.14 9.51Q87.16 10.78 87.75 11.42L87.75 11.42L87.75 11.42Q88.34 12.07 89.28 12.07L89.28 12.07L89.28 12.07Q89.92 12.07 90.35 11.79L90.35 11.79L90.35 11.79Q90.78 11.52 91.13 11.05L91.13 11.05L91.53 11.30L91.53 11.30Q91.21 12.14 90.48 12.60L90.48 12.60L90.48 12.60Q89.75 13.06 88.73 13.06L88.73 13.06L88.73 13.06Q87.99 13.06 87.39 12.82L87.39 12.82L87.39 12.82Q86.80 12.59 86.37 12.13L86.37 12.13L86.37 12.13Q85.95 11.68 85.72 11.03L85.72 11.03L85.72 11.03Q85.48 10.37 85.48 9.55L85.48 9.55L85.48 9.55Q85.48 8.75 85.74 8.09L85.74 8.09L85.74 8.09Q86.00 7.42 86.46 6.94L86.46 6.94L86.46 6.94Q86.91 6.47 87.53 6.20L87.53 6.20L87.53 6.20Q88.14 5.94 88.84 5.94L88.84 5.94L88.84 5.94Q89.46 5.94 89.97 6.14L89.97 6.14L89.97 6.14Q90.48 6.34 90.85 6.71L90.85 6.71L90.85 6.71Q91.21 7.07 91.41 7.60L91.41 7.60L91.41 7.60Q91.62 8.12 91.62 8.76L91.62 8.76L91.62 8.76Q91.62 8.97 91.59 9.16L91.59 9.16L91.59 9.16Q91.56 9.35 91.52 9.51L91.52 9.51ZM96.57 11.69L96.94 12.12L96.94 12.12Q96.67 12.50 96.21 12.75L96.21 12.75L96.21 12.75Q95.75 12.99 95.09 12.99L95.09 12.99L95.09 12.99Q94.29 12.99 93.83 12.59L93.83 12.59L93.83 12.59Q93.37 12.18 93.37 11.33L93.37 11.33L93.37 11.33Q93.37 10.98 93.37 10.69L93.37 10.69L93.37 10.69Q93.38 10.40 93.38 10.00L93.38 10.00L93.38 7L92.34 7L92.34 6.31L93.51 6.16L93.88 4.23L94.99 4.23L94.95 6.19L96.68 6.19L96.68 7L94.93 7L94.93 11.05L94.93 11.05Q94.93 11.58 95.14 11.82L95.14 11.82L95.14 11.82Q95.35 12.05 95.69 12.05L95.69 12.05L95.69 12.05Q95.87 12.05 96.09 11.98L96.09 11.98L96.09 11.98Q96.31 11.90 96.57 11.69L96.57 11.69ZM104.24 12.11L105.13 12.29L105.13 12.85L101.71 12.85L101.71 12.29L102.66 12.11L102.66 12.11Q102.68 11.59 102.68 10.99L102.68 10.99L102.68 10.99Q102.68 10.39 102.68 9.91L102.68 9.91L102.68 8.62L102.68 8.62Q102.68 7.74 102.46 7.37L102.46 7.37L102.46 7.37Q102.24 7 101.70 7L101.70 7L101.70 7Q101.25 7 100.82 7.22L100.82 7.22L100.82 7.22Q100.39 7.43 99.92 7.88L99.92 7.88L99.92 9.91L99.92 9.91Q99.92 10.37 99.92 10.98L99.92 10.98L99.92 10.98Q99.92 11.59 99.93 12.11L99.93 12.11L100.81 12.29L100.81 12.85L97.40 12.85L97.40 12.29L98.35 12.11L98.35 12.11Q98.36 11.58 98.36 10.98L98.36 10.98L98.36 10.98Q98.36 10.37 98.36 9.91L98.36 9.91L98.36 4.00L97.26 3.86L97.26 3.33L99.74 2.70L99.93 2.81L99.88 4.80L99.88 7.18L99.88 7.18Q100.45 6.55 101.02 6.24L101.02 6.24L101.02 6.24Q101.60 5.94 102.30 5.94L102.30 5.94L102.30 5.94Q103.25 5.94 103.74 6.53L103.74 6.53L103.74 6.53Q104.23 7.13 104.23 8.46L104.23 8.46L104.23 9.91L104.23 9.91Q104.23 10.39 104.23 10.99L104.23 10.99L104.23 10.99Q104.23 11.59 104.24 12.11L104.24 12.11ZM119.22 4.23L118.02 4.35L118.02 4.35Q117.99 5.24 117.99 6.13L117.99 6.13L117.99 6.13Q117.99 7.01 117.99 7.92L117.99 7.92L117.99 8.51L117.99 8.51Q117.99 9.41 117.99 10.30L117.99 10.30L117.99 10.30Q117.99 11.19 118.02 12.08L118.02 12.08L119.22 12.21L119.22 12.85L115.05 12.85L115.05 12.21L116.27 12.07L116.27 12.07Q116.30 11.21 116.30 10.32L116.30 10.32L116.30 10.32Q116.30 9.44 116.30 8.44L116.30 8.44L112.11 8.44L112.11 8.44Q112.11 9.42 112.11 10.31L112.11 10.31L112.11 10.31Q112.11 11.20 112.14 12.08L112.14 12.08L113.34 12.21L113.34 12.85L109.19 12.85L109.19 12.21L110.39 12.08L110.39 12.08Q110.42 11.20 110.42 10.31L110.42 10.31L110.42 10.31Q110.42 9.42 110.42 8.51L110.42 8.51L110.42 7.92L110.42 7.92Q110.42 7.03 110.42 6.14L110.42 6.14L110.42 6.14Q110.42 5.25 110.39 4.35L110.39 4.35L109.19 4.23L109.19 3.58L113.34 3.58L113.34 4.23L112.14 4.35L112.14 4.35Q112.11 5.19 112.11 6.03L112.11 6.03L112.11 6.03Q112.11 6.87 112.11 7.73L112.11 7.73L116.30 7.73L116.30 7.73Q116.30 6.89 116.30 6.05L116.30 6.05L116.30 6.05Q116.30 5.21 116.27 4.37L116.27 4.37L115.05 4.23L115.05 3.58L119.22 3.58L119.22 4.23ZM123.89 11.49L123.89 9.23L123.89 9.23Q123.56 9.32 123.28 9.42L123.28 9.42L123.28 9.42Q122.99 9.52 122.79 9.59L122.79 9.59L122.79 9.59Q122.04 9.88 121.80 10.26L121.80 10.26L121.80 10.26Q121.56 10.63 121.56 11.00L121.56 11.00L121.56 11.00Q121.56 11.28 121.64 11.45L121.64 11.45L121.64 11.45Q121.72 11.62 121.84 11.75L121.84 11.75L121.84 11.75Q122.15 12.05 122.65 12.05L122.65 12.05L122.65 12.05Q122.93 12.05 123.19 11.94L123.19 11.94L123.19 11.94Q123.45 11.82 123.89 11.49L123.89 11.49ZM126.38 11.83L126.70 12.11L126.70 12.11Q126.43 12.63 126.12 12.81L126.12 12.81L126.12 12.81Q125.80 12.99 125.36 12.99L125.36 12.99L125.36 12.99Q124.77 12.99 124.42 12.74L124.42 12.74L124.42 12.74Q124.07 12.49 123.94 12.05L123.94 12.05L123.94 12.05Q123.69 12.31 123.46 12.50L123.46 12.50L123.46 12.50Q123.23 12.68 123.00 12.81L123.00 12.81L123.00 12.81Q122.77 12.94 122.50 13.00L122.50 13.00L122.50 13.00Q122.23 13.06 121.91 13.06L121.91 13.06L121.91 13.06Q121.11 13.06 120.57 12.62L120.57 12.62L120.57 12.62Q120.02 12.18 120.02 11.34L120.02 11.34L120.02 11.34Q120.02 11.03 120.12 10.74L120.12 10.74L120.12 10.74Q120.22 10.44 120.49 10.16L120.49 10.16L120.49 10.16Q120.76 9.87 121.25 9.60L121.25 9.60L121.25 9.60Q121.73 9.34 122.49 9.07L122.49 9.07L122.49 9.07Q122.77 8.97 123.14 8.87L123.14 8.87L123.14 8.87Q123.51 8.76 123.89 8.65L123.89 8.65L123.89 8.27L123.89 8.27Q123.89 7.32 123.60 6.96L123.60 6.96L123.60 6.96Q123.31 6.59 122.63 6.59L122.63 6.59L122.63 6.59Q122.50 6.59 122.35 6.61L122.35 6.61L122.35 6.61Q122.21 6.62 122.05 6.65L122.05 6.65L121.86 7.55L121.86 7.55Q121.69 8.43 120.99 8.43L120.99 8.43L120.99 8.43Q120.68 8.43 120.48 8.25L120.48 8.25L120.48 8.25Q120.29 8.06 120.25 7.77L120.25 7.77L120.25 7.77Q120.39 6.96 121.14 6.45L121.14 6.45L121.14 6.45Q121.90 5.94 123.12 5.94L123.12 5.94L123.12 5.94Q124.32 5.94 124.87 6.52L124.87 6.52L124.87 6.52Q125.43 7.11 125.43 8.57L125.43 8.57L125.43 11.51L125.43 11.51Q125.43 12.17 125.83 12.17L125.83 12.17L125.83 12.17Q125.99 12.17 126.10 12.09L126.10 12.09L126.10 12.09Q126.21 12.01 126.31 11.90L126.31 11.90L126.38 11.83ZM132.02 11.52L132.02 7.45L132.02 7.45Q131.28 6.87 130.66 6.87L130.66 6.87L130.66 6.87Q130.31 6.87 130.00 7.03L130.00 7.03L130.00 7.03Q129.68 7.18 129.44 7.51L129.44 7.51L129.44 7.51Q129.19 7.84 129.05 8.34L129.05 8.34L129.05 8.34Q128.91 8.83 128.91 9.51L128.91 9.51L128.91 9.51Q128.91 10.84 129.40 11.47L129.40 11.47L129.40 11.47Q129.88 12.11 130.62 12.11L130.62 12.11L130.62 12.11Q131.32 12.11 132.02 11.52L132.02 11.52ZM133.57 12.11L134.54 12.29L134.54 12.85L132.19 12.99L132.08 12.12L132.08 12.12Q131.67 12.57 131.19 12.82L131.19 12.82L131.19 12.82Q130.72 13.06 130.07 13.06L130.07 13.06L130.07 13.06Q129.46 13.06 128.94 12.82L128.94 12.82L128.94 12.82Q128.42 12.59 128.05 12.13L128.05 12.13L128.05 12.13Q127.68 11.68 127.47 11.03L127.47 11.03L127.47 11.03Q127.26 10.37 127.26 9.55L127.26 9.55L127.26 9.55Q127.26 8.72 127.49 8.06L127.49 8.06L127.49 8.06Q127.72 7.39 128.12 6.92L128.12 6.92L128.12 6.92Q128.52 6.44 129.07 6.19L129.07 6.19L129.07 6.19Q129.61 5.94 130.24 5.94L130.24 5.94L130.24 5.94Q131.33 5.94 132.09 6.78L132.09 6.78L132.09 4.00L130.93 3.86L130.93 3.33L133.43 2.70L133.63 2.81L133.57 4.80L133.57 12.11ZM140.14 11.52L140.14 7.45L140.14 7.45Q139.40 6.87 138.78 6.87L138.78 6.87L138.78 6.87Q138.43 6.87 138.12 7.03L138.12 7.03L138.12 7.03Q137.80 7.18 137.56 7.51L137.56 7.51L137.56 7.51Q137.31 7.84 137.17 8.34L137.17 8.34L137.17 8.34Q137.03 8.83 137.03 9.51L137.03 9.51L137.03 9.51Q137.03 10.84 137.52 11.47L137.52 11.47L137.52 11.47Q138.00 12.11 138.74 12.11L138.74 12.11L138.74 12.11Q139.44 12.11 140.14 11.52L140.14 11.52ZM141.69 12.11L142.66 12.29L142.66 12.85L140.31 12.99L140.20 12.12L140.20 12.12Q139.79 12.57 139.31 12.82L139.31 12.82L139.31 12.82Q138.84 13.06 138.19 13.06L138.19 13.06L138.19 13.06Q137.58 13.06 137.06 12.82L137.06 12.82L137.06 12.82Q136.54 12.59 136.17 12.13L136.17 12.13L136.17 12.13Q135.80 11.68 135.59 11.03L135.59 11.03L135.59 11.03Q135.38 10.37 135.38 9.55L135.38 9.55L135.38 9.55Q135.38 8.72 135.61 8.06L135.61 8.06L135.61 8.06Q135.84 7.39 136.24 6.92L136.24 6.92L136.24 6.92Q136.64 6.44 137.19 6.19L137.19 6.19L137.19 6.19Q137.73 5.94 138.36 5.94L138.36 5.94L138.36 5.94Q139.45 5.94 140.21 6.78L140.21 6.78L140.21 4.00L139.05 3.86L139.05 3.33L141.55 2.70L141.75 2.81L141.69 4.80L141.69 12.11ZM147.29 11.49L147.29 9.23L147.29 9.23Q146.97 9.32 146.69 9.42L146.69 9.42L146.69 9.42Q146.40 9.52 146.20 9.59L146.20 9.59L146.20 9.59Q145.45 9.88 145.21 10.26L145.21 10.26L145.21 10.26Q144.97 10.63 144.97 11.00L144.97 11.00L144.97 11.00Q144.97 11.28 145.05 11.45L145.05 11.45L145.05 11.45Q145.12 11.62 145.25 11.75L145.25 11.75L145.25 11.75Q145.56 12.05 146.06 12.05L146.06 12.05L146.06 12.05Q146.34 12.05 146.60 11.94L146.60 11.94L146.60 11.94Q146.86 11.82 147.29 11.49L147.29 11.49ZM149.79 11.83L150.11 12.11L150.11 12.11Q149.84 12.63 149.53 12.81L149.53 12.81L149.53 12.81Q149.21 12.99 148.76 12.99L148.76 12.99L148.76 12.99Q148.18 12.99 147.83 12.74L147.83 12.74L147.83 12.74Q147.48 12.49 147.35 12.05L147.35 12.05L147.35 12.05Q147.10 12.31 146.87 12.50L146.87 12.50L146.87 12.50Q146.64 12.68 146.41 12.81L146.41 12.81L146.41 12.81Q146.17 12.94 145.91 13.00L145.91 13.00L145.91 13.00Q145.64 13.06 145.32 13.06L145.32 13.06L145.32 13.06Q144.52 13.06 143.98 12.62L143.98 12.62L143.98 12.62Q143.43 12.18 143.43 11.34L143.43 11.34L143.43 11.34Q143.43 11.03 143.53 10.74L143.53 10.74L143.53 10.74Q143.63 10.44 143.90 10.16L143.90 10.16L143.90 10.16Q144.17 9.87 144.66 9.60L144.66 9.60L144.66 9.60Q145.14 9.34 145.89 9.07L145.89 9.07L145.89 9.07Q146.17 8.97 146.55 8.87L146.55 8.87L146.55 8.87Q146.92 8.76 147.29 8.65L147.29 8.65L147.29 8.27L147.29 8.27Q147.29 7.32 147.01 6.96L147.01 6.96L147.01 6.96Q146.72 6.59 146.03 6.59L146.03 6.59L146.03 6.59Q145.91 6.59 145.76 6.61L145.76 6.61L145.76 6.61Q145.61 6.62 145.46 6.65L145.46 6.65L145.26 7.55L145.26 7.55Q145.10 8.43 144.40 8.43L144.40 8.43L144.40 8.43Q144.09 8.43 143.89 8.25L143.89 8.25L143.89 8.25Q143.70 8.06 143.65 7.77L143.65 7.77L143.65 7.77Q143.79 6.96 144.55 6.45L144.55 6.45L144.55 6.45Q145.31 5.94 146.52 5.94L146.52 5.94L146.52 5.94Q147.73 5.94 148.28 6.52L148.28 6.52L148.28 6.52Q148.83 7.11 148.83 8.57L148.83 8.57L148.83 11.51L148.83 11.51Q148.83 12.17 149.24 12.17L149.24 12.17L149.24 12.17Q149.39 12.17 149.51 12.09L149.51 12.09L149.51 12.09Q149.62 12.01 149.72 11.90L149.72 11.90L149.79 11.83ZM155.43 11.52L155.43 7.45L155.43 7.45Q154.69 6.87 154.07 6.87L154.07 6.87L154.07 6.87Q153.72 6.87 153.41 7.03L153.41 7.03L153.41 7.03Q153.09 7.18 152.85 7.51L152.85 7.51L152.85 7.51Q152.60 7.84 152.46 8.34L152.46 8.34L152.46 8.34Q152.32 8.83 152.32 9.51L152.32 9.51L152.32 9.51Q152.32 10.84 152.80 11.47L152.80 11.47L152.80 11.47Q153.29 12.11 154.03 12.11L154.03 12.11L154.03 12.11Q154.73 12.11 155.43 11.52L155.43 11.52ZM156.98 12.11L157.95 12.29L157.95 12.85L155.60 12.99L155.48 12.12L155.48 12.12Q155.08 12.57 154.60 12.82L154.60 12.82L154.60 12.82Q154.13 13.06 153.48 13.06L153.48 13.06L153.48 13.06Q152.87 13.06 152.35 12.82L152.35 12.82L152.35 12.82Q151.83 12.59 151.46 12.13L151.46 12.13L151.46 12.13Q151.09 11.68 150.88 11.03L150.88 11.03L150.88 11.03Q150.67 10.37 150.67 9.55L150.67 9.55L150.67 9.55Q150.67 8.72 150.90 8.06L150.90 8.06L150.90 8.06Q151.13 7.39 151.53 6.92L151.53 6.92L151.53 6.92Q151.93 6.44 152.47 6.19L152.47 6.19L152.47 6.19Q153.02 5.94 153.65 5.94L153.65 5.94L153.65 5.94Q154.74 5.94 155.50 6.78L155.50 6.78L155.50 4.00L154.34 3.86L154.34 3.33L156.84 2.70L157.04 2.81L156.98 4.80L156.98 12.11ZM160.47 4.59L160.47 4.59L160.47 4.59Q160.02 4.59 159.71 4.31L159.71 4.31L159.71 4.31Q159.40 4.03 159.40 3.58L159.40 3.58L159.40 3.58Q159.40 3.14 159.71 2.86L159.71 2.86L159.71 2.86Q160.02 2.58 160.47 2.58L160.47 2.58L160.47 2.58Q160.92 2.58 161.22 2.86L161.22 2.86L161.22 2.86Q161.52 3.14 161.52 3.58L161.52 3.58L161.52 3.58Q161.52 4.03 161.22 4.31L161.22 4.31L161.22 4.31Q160.92 4.59 160.47 4.59ZM161.28 12.11L162.16 12.29L162.16 12.85L158.75 12.85L158.75 12.29L159.70 12.11L159.70 12.11Q159.71 11.58 159.71 10.98L159.71 10.98L159.71 10.98Q159.71 10.37 159.71 9.91L159.71 9.91L159.71 9.21L159.71 9.21Q159.71 8.64 159.70 8.25L159.70 8.25L159.70 8.25Q159.68 7.87 159.67 7.45L159.67 7.45L158.65 7.32L158.65 6.80L161.10 5.94L161.31 6.08L161.27 8.02L161.27 9.91L161.27 9.91Q161.27 10.37 161.27 10.98L161.27 10.98L161.27 10.98Q161.27 11.59 161.28 12.11L161.28 12.11Z"></path></g> <!----> <g data-v-5f19e91b="" id="7138a9bf-29cb-d7ce-3725-f6594f97abb4" transform="matrix(0.9876555548773871,0,0,0.9876555548773871,0.6172222561306455,-4.827271544519718)" stroke="none" fill="white"><!--?xml version="1.0" encoding="utf-8"?--><g><path d="M90,16.667V5.556H55.556v11.111H44.444V5.556H10v11.111H7.641H0V50h7.641H10v12.223h11.111v10h11.111v12.222h11.111v10
		h13.333v-10h11.11V72.223h0.994h10.117v-10H90V50h2.283H100V16.667 M24.444,29.016v12.096H11.111V29.016V17.778h13.333V29.016z"></path></g></g></svg>